<svg xmlns="http://www.w3.org/2000/svg" viewBox="0 0 1200 630"><defs><style>.cls-1{isolation:isolate;}.cls-2,.cls-6{fill:#e6ebf2;}.cls-3{fill:#018c99;}.cls-11,.cls-13,.cls-19,.cls-20,.cls-24,.cls-27,.cls-28,.cls-37,.cls-38,.cls-4{mix-blend-mode:multiply;}.cls-5{fill:#dadfe6;}.cls-6{opacity:0.15;}.cls-18,.cls-23,.cls-6{mix-blend-mode:screen;}.cls-7{fill:#d9d9d9;}.cls-18,.cls-8,.cls-9{fill:#fff;}.cls-13,.cls-21,.cls-8{opacity:0.25;}.cls-10,.cls-13,.cls-20,.cls-21{fill:#ccc;}.cls-11{fill:#01a6b5;}.cls-11,.cls-31,.cls-32,.cls-33,.cls-37,.cls-39{opacity:0.8;}.cls-12{fill:#e6e6e6;}.cls-14{fill:#029ba6;}.cls-15{fill:#02b3c0;}.cls-16{fill:#02bfcc;}.cls-17{fill:#028f99;}.cls-18,.cls-27,.cls-28{opacity:0.3;}.cls-19,.cls-25,.cls-36,.cls-38,.cls-39{fill:#e9e3f1;}.cls-19{opacity:0.31;}.cls-20{opacity:0.5;}.cls-22,.cls-23{fill:#ff4545;}.cls-24,.cls-38{opacity:0.7;}.cls-26,.cls-27{fill:#e5914a;}.cls-26,.cls-27,.cls-36{fill-rule:evenodd;}.cls-26{opacity:0.95;}.cls-29{fill:#a9a1c2;}.cls-30{fill:#dbd6e3;}.cls-31{fill:#f8f8f8;}.cls-32{fill:#a4a4a4;}.cls-33{fill:#d1d1d1;}.cls-34{fill:#4a4a4a;}.cls-35,.cls-44{fill:none;}.cls-35{stroke:#4a4a4a;stroke-miterlimit:10;stroke-width:2.08px;}.cls-40{fill:#76a3eb;}.cls-41{fill:#b3d1ff;}.cls-42{fill:#b8b8b8;}.cls-43{fill:#f3f3f3;}</style></defs><title>bannermedicine</title><g class="cls-1"><g id="OBJECTS"><path class="cls-2" d="M464.45,486.72,482.93,473l-19.18-25.83L445.27,460.9A15.88,15.88,0,0,0,442,483.11l.25.33A15.87,15.87,0,0,0,464.45,486.72Z"/><path class="cls-3" d="M502,459.26a16.2,16.2,0,0,0,3.34-22.65l-.25-.34a16.19,16.19,0,0,0-22.65-3.35l-19.86,14.75A58.46,58.46,0,0,0,482.1,474Z"/><g class="cls-4"><path class="cls-5" d="M464.45,486.72l17.4-12.92.25.21L502,459.26a16.18,16.18,0,0,0,6.17-16.35c-1.18,3.14-4.23,8.72-12.17,15.38-12.32,10.33-36.32,27.1-36.32,27.1a16.3,16.3,0,0,1-10.79,3.21A15.85,15.85,0,0,0,464.45,486.72Z"/></g><path class="cls-6" d="M479.14,453c-9.85,7.32-19.09,11.57-20.64,9.48s5.19-9.7,15-17,19.1-11.57,20.64-9.49S489,445.64,479.14,453Z"/><path class="cls-2" d="M662.84,492.87l18.48-13.72-19.17-25.82-18.48,13.72a15.88,15.88,0,0,0-3.29,22.21l.25.33A15.87,15.87,0,0,0,662.84,492.87Z"/><path class="cls-3" d="M700.36,465.41a16.19,16.19,0,0,0,3.34-22.65l-.25-.33a16.19,16.19,0,0,0-22.65-3.35l-19.86,14.75a58.44,58.44,0,0,0,19.55,26.33Z"/><g class="cls-4"><path class="cls-5" d="M662.84,492.87,680.24,480l.25.21,19.87-14.75a16.16,16.16,0,0,0,6.17-16.34c-1.17,3.13-4.23,8.71-12.17,15.37C682,474.77,658,491.55,658,491.55a16.3,16.3,0,0,1-10.79,3.21A15.85,15.85,0,0,0,662.84,492.87Z"/></g><path class="cls-6" d="M677.53,459.11c-9.85,7.32-19.09,11.57-20.64,9.49s5.19-9.71,15-17S691,440,692.57,442.09,687.39,451.79,677.53,459.11Z"/><path class="cls-2" d="M735.68,108.26l20.05,11.32,15.82-28-20-11.33a15.89,15.89,0,0,0-21.64,6l-.2.35A15.89,15.89,0,0,0,735.68,108.26Z"/><path class="cls-3" d="M776,131.4a16.19,16.19,0,0,0,22.06-6.13l.2-.36a16.18,16.18,0,0,0-6.13-22.06L770.6,90.68a58.33,58.33,0,0,0-16.13,28.55Z"/><g class="cls-4"><path class="cls-5" d="M735.68,108.26l18.87,10.66c0,.11-.06.21-.08.31L776,131.41a16.17,16.17,0,0,0,17.44-1c-3.34.19-9.68-.33-19-4.89C760,118.46,735,103.33,735,103.33a16.29,16.29,0,0,1-7.31-8.56A15.87,15.87,0,0,0,735.68,108.26Z"/></g><path class="cls-6" d="M772.5,108c-10.69-6-18.32-12.76-17-15s11,.8,21.66,6.84,18.32,12.76,17,15S783.19,114,772.5,108Z"/><path class="cls-7" d="M569.43,177.56A24,24,0,1,1,536,171.87,24,24,0,0,1,569.43,177.56Z"/><circle class="cls-8" cx="549.86" cy="191.44" r="20.65" transform="translate(271.97 703.08) rotate(-80.69)"/><path class="cls-9" d="M565.34,177.56l-33.69,23.88-.19,1.39a2,2,0,0,0,1.56,2.22l1.39.28,33.69-23.88.18-1.4a2,2,0,0,0-1.57-2.22Z"/><path class="cls-10" d="M566.71,177.83l-1.37-.27-33.69,23.88-.19,1.39a2,2,0,0,0,.34,1.41l36.13-25.61A2,2,0,0,0,566.71,177.83Z"/><ellipse class="cls-11" cx="853.44" cy="524.51" rx="62.65" ry="9.95"/><path class="cls-11" d="M1070.25,558.31c3.21-1.45,5-3,5-4.62,0-7.68-39.21-13.91-87.59-13.91S900,546,900,553.69s39.22,13.9,87.59,13.9a460.4,460.4,0,0,0,52-2.71A252.28,252.28,0,0,0,1070.25,558.31Z"/><path class="cls-12" d="M1011.37,360.44l-117,22.65a16.72,16.72,0,0,1-19.6-13.24L840.34,191.93a16.72,16.72,0,0,1,13.24-19.6l117-22.66a16.74,16.74,0,0,1,19.61,13.25l34.46,177.91A16.73,16.73,0,0,1,1011.37,360.44Z"/><path class="cls-13" d="M936.93,185.43a17.12,17.12,0,1,1-20.06-13.55A17.11,17.11,0,0,1,936.93,185.43Z"/><circle class="cls-14" cx="918.12" cy="192.19" r="15.69" transform="translate(288.26 887.28) rotate(-59.64)"/><path class="cls-15" d="M931.61,193a13.51,13.51,0,1,1-12.67-14.3A13.52,13.52,0,0,1,931.61,193Z"/><path class="cls-16" d="M931.7,191.45l-27-1.63-.66.63a1.29,1.29,0,0,0-.11,1.77l.59.72,27,1.63.67-.64a1.31,1.31,0,0,0,.11-1.78Z"/><path class="cls-17" d="M932.29,192.15l-.59-.7-27-1.63-.66.63a1.26,1.26,0,0,0-.4.86l28.92,1.75A1.35,1.35,0,0,0,932.29,192.15Z"/><path class="cls-18" d="M935.89,188.82a18.1,18.1,0,1,1-21.22-14.33A18.11,18.11,0,0,1,935.89,188.82Z"/><path class="cls-18" d="M925.19,206.76c-.53,1.37-7.12,3.8-13.17,1.45s-9.27-8.59-8.74-10,4.2,3.72,10.25,6.07S925.72,205.4,925.19,206.76Z"/><circle class="cls-13" cx="962.47" cy="180.38" r="17.12" transform="translate(650.56 1108.61) rotate(-82.04)"/><circle class="cls-14" cx="960.46" cy="183.88" r="15.69" transform="translate(102.09 652.38) rotate(-39.46)"/><path class="cls-15" d="M964.8,171.09a13.51,13.51,0,1,1-17.14,8.46A13.51,13.51,0,0,1,964.8,171.09Z"/><path class="cls-16" d="M963.33,170.59l-8.68,25.58.44.81a1.29,1.29,0,0,0,1.67.57l.85-.37,8.67-25.59-.44-.82a1.29,1.29,0,0,0-1.68-.56Z"/><path class="cls-17" d="M964.16,170.21l-.83.38-8.68,25.58.44.81a1.32,1.32,0,0,0,.72.62l9.3-27.44A1.31,1.31,0,0,0,964.16,170.21Z"/><path class="cls-18" d="M978.23,180.51A18.11,18.11,0,1,1,957,166.18,18.11,18.11,0,0,1,978.23,180.51Z"/><path class="cls-18" d="M967.53,198.46c-.53,1.37-7.12,3.8-13.17,1.45s-9.27-8.6-8.74-10,4.2,3.72,10.25,6.07S968.06,197.1,967.53,198.46Z"/><path class="cls-13" d="M893.79,193.69a17.12,17.12,0,1,1-20.06-13.56A17.12,17.12,0,0,1,893.79,193.69Z"/><path class="cls-14" d="M889.89,195.57a15.69,15.69,0,1,1-19.79-10A15.69,15.69,0,0,1,889.89,195.57Z"/><path class="cls-15" d="M887.82,196.24a13.51,13.51,0,1,1-17-8.64A13.51,13.51,0,0,1,887.82,196.24Z"/><path class="cls-16" d="M887.34,194.77l-25.68,8.39-.39.83a1.29,1.29,0,0,0,.55,1.68l.81.45,25.68-8.39.38-.84a1.29,1.29,0,0,0-.55-1.68Z"/><path class="cls-17" d="M888.14,195.21l-.8-.44-25.68,8.39-.39.83a1.26,1.26,0,0,0-.06.95l27.54-9A1.29,1.29,0,0,0,888.14,195.21Z"/><path class="cls-18" d="M892.74,197.07a18.1,18.1,0,1,1-21.21-14.33A18.09,18.09,0,0,1,892.74,197.07Z"/><path class="cls-18" d="M882,215c-.53,1.37-7.12,3.79-13.17,1.44s-9.26-8.59-8.73-10,4.2,3.73,10.25,6.08S882.57,213.65,882,215Z"/><path class="cls-13" d="M946.91,234.87a17.12,17.12,0,1,1-20.07-13.55A17.11,17.11,0,0,1,946.91,234.87Z"/><path class="cls-14" d="M922,256.08a15.69,15.69,0,1,1,20.56-8.35A15.68,15.68,0,0,1,922,256.08Z"/><path class="cls-15" d="M922.84,254.07a13.51,13.51,0,1,1,17.7-7.19A13.5,13.5,0,0,1,922.84,254.07Z"/><path class="cls-16" d="M924.27,254.68l10.51-24.89-.37-.84a1.3,1.3,0,0,0-1.63-.69l-.87.32-10.52,24.88.38.85a1.3,1.3,0,0,0,1.64.68Z"/><path class="cls-17" d="M923.41,255l.86-.31,10.51-24.89-.37-.84a1.29,1.29,0,0,0-.68-.66L922.45,255A1.27,1.27,0,0,0,923.41,255Z"/><path class="cls-18" d="M945.86,238.26a18.1,18.1,0,1,1-21.21-14.33A18.1,18.1,0,0,1,945.86,238.26Z"/><path class="cls-18" d="M935.16,256.2c-.53,1.37-7.12,3.8-13.17,1.45s-9.26-8.59-8.73-10,4.2,3.72,10.24,6.07S935.69,254.84,935.16,256.2Z"/><path class="cls-13" d="M989.25,226.57A17.12,17.12,0,1,1,969.18,213,17.12,17.12,0,0,1,989.25,226.57Z"/><path class="cls-14" d="M986.1,234.27a15.69,15.69,0,1,1-14.72-16.61A15.7,15.7,0,0,1,986.1,234.27Z"/><circle class="cls-15" cx="970.43" cy="233.32" r="13.51" transform="translate(-26.74 276.16) rotate(-15.98)"/><path class="cls-16" d="M984,232.59l-27-1.63-.67.63a1.31,1.31,0,0,0-.11,1.77l.59.71,27,1.63.67-.64a1.3,1.3,0,0,0,.1-1.77Z"/><path class="cls-17" d="M984.6,233.29l-.59-.7-27-1.63-.67.63a1.26,1.26,0,0,0-.4.86l28.92,1.75A1.29,1.29,0,0,0,984.6,233.29Z"/><circle class="cls-18" cx="970.43" cy="233.4" r="18.1" transform="translate(98.1 718.43) rotate(-42.6)"/><path class="cls-18" d="M977.5,247.9c-.53,1.37-7.12,3.8-13.17,1.45s-9.26-8.6-8.73-10,4.19,3.72,10.24,6.07S978,246.54,977.5,247.9Z"/><path class="cls-13" d="M903.76,243.13a17.12,17.12,0,1,1-20.06-13.56A17.12,17.12,0,0,1,903.76,243.13Z"/><circle class="cls-14" cx="884.95" cy="249.88" r="15.69" transform="translate(43.99 621.84) rotate(-39.63)"/><path class="cls-15" d="M898.44,250.69a13.51,13.51,0,1,1-12.68-14.3A13.52,13.52,0,0,1,898.44,250.69Z"/><path class="cls-16" d="M898.53,249.14l-27-1.63-.66.63a1.29,1.29,0,0,0-.11,1.77l.59.72,27,1.63.67-.64a1.3,1.3,0,0,0,.11-1.77Z"/><path class="cls-17" d="M899.12,249.85l-.59-.71-27-1.63-.66.63a1.32,1.32,0,0,0-.41.87l28.92,1.74A1.32,1.32,0,0,0,899.12,249.85Z"/><path class="cls-18" d="M902.72,246.51a18.11,18.11,0,1,1-21.22-14.33A18.11,18.11,0,0,1,902.72,246.51Z"/><path class="cls-18" d="M892,264.46c-.53,1.37-7.12,3.79-13.17,1.44s-9.27-8.59-8.74-10,4.2,3.73,10.25,6.08S892.55,263.09,892,264.46Z"/><path class="cls-13" d="M956.48,284.29a17.12,17.12,0,1,1-20.06-13.55A17.12,17.12,0,0,1,956.48,284.29Z"/><path class="cls-14" d="M953.33,292a15.69,15.69,0,1,1-14.72-16.61A15.7,15.7,0,0,1,953.33,292Z"/><path class="cls-15" d="M951.15,291.86a13.51,13.51,0,1,1-12.67-14.31A13.51,13.51,0,0,1,951.15,291.86Z"/><path class="cls-16" d="M951.25,290.31l-27-1.63-.67.63a1.3,1.3,0,0,0-.11,1.76l.59.72,27,1.63.67-.64a1.3,1.3,0,0,0,.1-1.77Z"/><path class="cls-17" d="M951.83,291l-.58-.7-27-1.63-.67.63a1.31,1.31,0,0,0-.4.86l28.92,1.75A1.29,1.29,0,0,0,951.83,291Z"/><path class="cls-18" d="M955.43,287.67a18.1,18.1,0,1,1-21.21-14.33A18.1,18.1,0,0,1,955.43,287.67Z"/><path class="cls-18" d="M944.73,305.62c-.53,1.37-7.12,3.8-13.17,1.44s-9.26-8.59-8.73-9.95,4.2,3.72,10.24,6.07S945.26,304.25,944.73,305.62Z"/><path class="cls-13" d="M998.82,276a17.12,17.12,0,1,1-20.07-13.56A17.12,17.12,0,0,1,998.82,276Z"/><circle class="cls-14" cx="980" cy="282.74" r="15.69" transform="translate(173.35 906.97) rotate(-53.83)"/><path class="cls-15" d="M993.49,283.55a13.51,13.51,0,1,1-12.67-14.3A13.51,13.51,0,0,1,993.49,283.55Z"/><path class="cls-16" d="M993.58,282l-27-1.63L966,281a1.31,1.31,0,0,0-.11,1.77l.59.72,27,1.63.67-.64a1.3,1.3,0,0,0,.1-1.77Z"/><path class="cls-17" d="M994.17,282.71l-.59-.71-27-1.63L966,281a1.35,1.35,0,0,0-.4.86l28.92,1.75A1.26,1.26,0,0,0,994.17,282.71Z"/><circle class="cls-18" cx="980" cy="282.81" r="18.1" transform="translate(-1.98 6.95) rotate(-0.41)"/><path class="cls-18" d="M987.07,297.32c-.53,1.36-7.12,3.79-13.17,1.44s-9.26-8.59-8.73-10,4.2,3.73,10.24,6.08S987.6,296,987.07,297.32Z"/><path class="cls-13" d="M913.33,292.54A17.12,17.12,0,1,1,893.27,279,17.11,17.11,0,0,1,913.33,292.54Z"/><path class="cls-14" d="M909.4,294.3a15.7,15.7,0,1,1-19.88-9.88A15.7,15.7,0,0,1,909.4,294.3Z"/><path class="cls-15" d="M907.33,295a13.51,13.51,0,1,1-17.11-8.5A13.51,13.51,0,0,1,907.33,295Z"/><path class="cls-16" d="M906.83,293.52l-25.61,8.6-.38.84a1.3,1.3,0,0,0,.56,1.68l.82.44,25.61-8.6.38-.84a1.31,1.31,0,0,0-.57-1.69Z"/><path class="cls-17" d="M907.64,294l-.81-.43-25.61,8.6-.38.84a1.31,1.31,0,0,0-.05,1l27.47-9.23A1.34,1.34,0,0,0,907.64,294Z"/><path class="cls-18" d="M912.29,295.93a18.1,18.1,0,1,1-21.22-14.33A18.11,18.11,0,0,1,912.29,295.93Z"/><path class="cls-18" d="M901.59,313.87c-.53,1.37-7.12,3.8-13.17,1.45s-9.27-8.59-8.74-10,4.2,3.72,10.25,6.07S902.12,312.51,901.59,313.87Z"/><path class="cls-13" d="M966.05,333.7A17.12,17.12,0,1,1,946,320.15,17.12,17.12,0,0,1,966.05,333.7Z"/><path class="cls-14" d="M962.9,341.4a15.69,15.69,0,1,1-14.72-16.61A15.68,15.68,0,0,1,962.9,341.4Z"/><circle class="cls-15" cx="947.24" cy="340.46" r="13.51" transform="translate(-5.5 15.71) rotate(-0.95)"/><path class="cls-16" d="M960.82,339.72l-27-1.63-.67.63a1.31,1.31,0,0,0-.11,1.77l.59.72,27,1.63.67-.64a1.29,1.29,0,0,0,.1-1.77Z"/><path class="cls-17" d="M961.4,340.43l-.58-.71-27-1.63-.67.63a1.35,1.35,0,0,0-.4.86l28.92,1.75A1.26,1.26,0,0,0,961.4,340.43Z"/><path class="cls-18" d="M965,337.09a18.1,18.1,0,1,1-21.21-14.33A18.09,18.09,0,0,1,965,337.09Z"/><path class="cls-18" d="M954.3,355c-.53,1.36-7.12,3.79-13.16,1.44s-9.27-8.59-8.74-10,4.2,3.72,10.25,6.08S954.83,353.67,954.3,355Z"/><path class="cls-13" d="M1008.39,325.4a17.12,17.12,0,1,1-20.06-13.55A17.11,17.11,0,0,1,1008.39,325.4Z"/><path class="cls-14" d="M1004.56,327.48a15.7,15.7,0,1,1-19.66-10.31A15.7,15.7,0,0,1,1004.56,327.48Z"/><path class="cls-15" d="M1002.47,328.13a13.51,13.51,0,1,1-16.92-8.87A13.5,13.5,0,0,1,1002.47,328.13Z"/><path class="cls-16" d="M1002,326.65l-25.79,8-.4.83a1.29,1.29,0,0,0,.53,1.69l.8.46,25.79-8,.4-.84a1.29,1.29,0,0,0-.53-1.69Z"/><path class="cls-17" d="M1002.81,327.1l-.8-.45-25.79,8-.4.83a1.28,1.28,0,0,0-.07.94l27.66-8.62A1.32,1.32,0,0,0,1002.81,327.1Z"/><circle class="cls-18" cx="989.57" cy="332.23" r="18.1" transform="matrix(0.87, -0.5, 0.5, 0.87, -34.54, 534.29)"/><path class="cls-18" d="M996.64,346.73c-.53,1.37-7.12,3.8-13.17,1.45s-9.26-8.6-8.73-10,4.2,3.72,10.24,6.07S997.17,345.37,996.64,346.73Z"/><path class="cls-13" d="M922.9,342a17.12,17.12,0,1,1-20.06-13.55A17.12,17.12,0,0,1,922.9,342Z"/><path class="cls-14" d="M919.1,344.13a15.69,15.69,0,1,1-19.59-10.43A15.69,15.69,0,0,1,919.1,344.13Z"/><path class="cls-15" d="M917,344.77a13.51,13.51,0,1,1-16.86-9A13.5,13.5,0,0,1,917,344.77Z"/><path class="cls-16" d="M916.56,343.29l-25.84,7.87-.4.83a1.29,1.29,0,0,0,.51,1.69l.8.47,25.84-7.88.41-.83a1.3,1.3,0,0,0-.52-1.7Z"/><path class="cls-17" d="M917.36,343.74l-.8-.45-25.84,7.87-.4.83a1.29,1.29,0,0,0-.08.94L918,344.48A1.3,1.3,0,0,0,917.36,343.74Z"/><path class="cls-18" d="M921.86,345.34A18.11,18.11,0,1,1,900.64,331,18.11,18.11,0,0,1,921.86,345.34Z"/><path class="cls-18" d="M911.16,363.29c-.53,1.37-7.12,3.8-13.17,1.44s-9.27-8.59-8.73-10,4.19,3.72,10.24,6.07S911.69,361.92,911.16,363.29Z"/><path class="cls-19" d="M874.8,369.85a16.72,16.72,0,0,0,19.6,13.24L951.69,372,854.12,263.08Z"/><path class="cls-10" d="M944.39,406.92l-84.63,75.83a17.27,17.27,0,0,1-24.38-1.34L701.31,331.76a17.26,17.26,0,0,1,1.33-24.38l84.64-75.82a17.26,17.26,0,0,1,24.38,1.33L945.73,382.54A17.26,17.26,0,0,1,944.39,406.92Z"/><path class="cls-20" d="M886.06,432.14,755.83,286.77a3.43,3.43,0,0,1,.27-4.87h0a3.44,3.44,0,0,1,4.87.26L891.21,427.53a3.46,3.46,0,0,1-.27,4.88h0A3.46,3.46,0,0,1,886.06,432.14Z"/><g class="cls-4"><path class="cls-21" d="M805.86,247.35a16.37,16.37,0,0,0-2.72.12L799.3,305a15.47,15.47,0,0,0,2.06.17h0c8.17.35,15.27-5.47,15.85-13l2.38-30.48C820.18,254.1,814,247.7,805.86,247.35Z"/></g><path class="cls-2" d="M809.63,294l1-17-23.78-1.37-1,17A11.76,11.76,0,0,0,796.91,305l.31,0A11.76,11.76,0,0,0,809.63,294Z"/><path class="cls-22" d="M811.84,259.64A12,12,0,0,0,800.56,247l-.31,0a12,12,0,0,0-12.65,11.28l-1.06,18.29a43.31,43.31,0,0,0,24.25,1.4Z"/><g class="cls-4"><path class="cls-5" d="M809.63,294l.92-16,.24,0,1.05-18.29a12,12,0,0,0-6.35-11.27c1.22,2.16,2.94,6.54,3,14.22,0,11.9-1.85,33.5-1.85,33.5a12.06,12.06,0,0,1-3.3,7.65A11.75,11.75,0,0,0,809.63,294Z"/></g><path class="cls-8" d="M812.67,293.43l2-33.11a14.86,14.86,0,0,0-13.94-15.72h0a14.87,14.87,0,0,0-15.72,14l-2,33.1a14.87,14.87,0,0,0,14,15.73h0A14.87,14.87,0,0,0,812.67,293.43Z"/><path class="cls-23" d="M797.42,269.61c-.52,9.08-2.49,16.34-4.41,16.23s-3-7.55-2.53-16.63,2.5-16.34,4.41-16.23S797.94,260.54,797.42,269.61Z"/><g class="cls-4"><path class="cls-21" d="M840.08,285.55a16.37,16.37,0,0,0-2.72.12l-3.83,57.51a17,17,0,0,0,2.05.17h0c8.17.35,15.27-5.48,15.86-13l2.37-30.49C854.4,292.3,848.25,285.9,840.08,285.55Z"/></g><path class="cls-2" d="M843.85,332.19l1-17-23.78-1.37-1,17a11.76,11.76,0,0,0,11.06,12.41h.31A11.75,11.75,0,0,0,843.85,332.19Z"/><path class="cls-22" d="M846.06,297.83a12,12,0,0,0-11.28-12.65l-.31,0a12,12,0,0,0-12.65,11.28l-1.06,18.29A43.31,43.31,0,0,0,845,316.12Z"/><g class="cls-4"><path class="cls-5" d="M843.85,332.19l.92-16,.24-.05,1-18.29a12,12,0,0,0-6.35-11.27c1.22,2.16,2.94,6.55,2.95,14.22,0,11.91-1.85,33.5-1.85,33.5a12.07,12.07,0,0,1-3.3,7.66A11.75,11.75,0,0,0,843.85,332.19Z"/></g><path class="cls-8" d="M846.89,331.63l2-33.11a14.86,14.86,0,0,0-13.94-15.72h0a14.86,14.86,0,0,0-15.72,13.94l-2,33.11a14.86,14.86,0,0,0,13.94,15.72h0A14.86,14.86,0,0,0,846.89,331.63Z"/><path class="cls-23" d="M831.65,307.81c-.52,9.07-2.5,16.34-4.42,16.23s-3.05-7.56-2.53-16.63,2.5-16.34,4.41-16.23S832.17,298.73,831.65,307.81Z"/><g class="cls-4"><path class="cls-21" d="M874.3,323.74a15.36,15.36,0,0,0-2.72.13l-3.83,57.51a17,17,0,0,0,2,.17h0c8.17.35,15.27-5.48,15.86-13L888,338C888.62,330.5,882.47,324.1,874.3,323.74Z"/></g><path class="cls-2" d="M878.07,370.38l1-17L855.28,352l-1,17a11.74,11.74,0,0,0,11.05,12.41l.31,0A11.76,11.76,0,0,0,878.07,370.38Z"/><path class="cls-22" d="M880.28,336A12,12,0,0,0,869,323.38l-.3,0A12,12,0,0,0,856,334.64l-1,18.28a43.27,43.27,0,0,0,24.24,1.4Z"/><g class="cls-4"><path class="cls-5" d="M878.07,370.38l.92-16,.24,0,1-18.29a12,12,0,0,0-6.35-11.27c1.22,2.16,2.94,6.54,3,14.22,0,11.9-1.85,33.5-1.85,33.5a12.06,12.06,0,0,1-3.3,7.65A11.75,11.75,0,0,0,878.07,370.38Z"/></g><path class="cls-8" d="M881.11,369.82l2-33.1A14.86,14.86,0,0,0,869.15,321h0a14.86,14.86,0,0,0-15.72,13.94l-2,33.11a14.86,14.86,0,0,0,13.94,15.72h0A14.86,14.86,0,0,0,881.11,369.82Z"/><path class="cls-23" d="M865.87,346c-.52,9.08-2.5,16.35-4.42,16.24s-3.05-7.56-2.53-16.63,2.5-16.34,4.42-16.23S866.39,336.93,865.87,346Z"/><g class="cls-4"><path class="cls-21" d="M908.53,361.94a16.44,16.44,0,0,0-2.73.12L902,419.57a15.18,15.18,0,0,0,2,.17h0c8.17.35,15.27-5.47,15.86-13l2.37-30.48C922.84,368.69,916.7,362.29,908.53,361.94Z"/></g><path class="cls-2" d="M912.29,408.58l1-17L889.5,390.2l-1,17a11.74,11.74,0,0,0,11.05,12.41l.31,0A11.76,11.76,0,0,0,912.29,408.58Z"/><path class="cls-22" d="M914.5,374.23a12,12,0,0,0-11.27-12.66l-.31,0a12,12,0,0,0-12.66,11.28l-1,18.29a43.18,43.18,0,0,0,24.24,1.39Z"/><g class="cls-4"><path class="cls-5" d="M912.29,408.58l.92-16,.24-.05,1-18.28A12,12,0,0,0,908.15,363c1.22,2.15,2.94,6.54,3,14.21,0,11.91-1.84,33.51-1.84,33.51a12.12,12.12,0,0,1-3.3,7.65A11.76,11.76,0,0,0,912.29,408.58Z"/></g><path class="cls-8" d="M915.33,408l2-33.11a14.86,14.86,0,0,0-13.94-15.72h0a14.87,14.87,0,0,0-15.72,13.95l-2,33.1A14.85,14.85,0,0,0,899.61,422h0A14.86,14.86,0,0,0,915.33,408Z"/><path class="cls-23" d="M900.09,384.2c-.52,9.08-2.5,16.34-4.42,16.23s-3-7.55-2.53-16.63,2.5-16.34,4.42-16.23S900.61,375.13,900.09,384.2Z"/><g class="cls-4"><path class="cls-21" d="M752.66,295a16.44,16.44,0,0,0-2.73.12l-3.83,57.51a15.18,15.18,0,0,0,2,.17h0c8.17.35,15.27-5.47,15.86-13l2.38-30.48C767,301.77,760.83,295.37,752.66,295Z"/></g><path class="cls-2" d="M756.42,341.66l1-17-23.77-1.36-1,17a11.75,11.75,0,0,0,11.06,12.41l.3,0A11.76,11.76,0,0,0,756.42,341.66Z"/><path class="cls-22" d="M758.63,307.31a12,12,0,0,0-11.27-12.66l-.31,0a12,12,0,0,0-12.66,11.28l-1,18.29a43.27,43.27,0,0,0,24.24,1.39Z"/><g class="cls-4"><path class="cls-5" d="M756.42,341.66l.92-16,.24-.05,1-18.28A12,12,0,0,0,752.28,296c1.22,2.15,2.94,6.54,3,14.21,0,11.91-1.84,33.5-1.84,33.5a12.07,12.07,0,0,1-3.3,7.66A11.76,11.76,0,0,0,756.42,341.66Z"/></g><path class="cls-8" d="M759.46,341.1l2-33.11a14.87,14.87,0,0,0-14-15.72h0a14.87,14.87,0,0,0-15.72,14l-2,33.1A14.86,14.86,0,0,0,743.74,355h0A14.86,14.86,0,0,0,759.46,341.1Z"/><path class="cls-23" d="M744.22,317.28c-.52,9.07-2.5,16.34-4.42,16.23s-3-7.55-2.53-16.63,2.5-16.34,4.42-16.23S744.74,308.21,744.22,317.28Z"/><g class="cls-4"><path class="cls-21" d="M786.88,333.22a16.44,16.44,0,0,0-2.73.12l-3.83,57.51a17,17,0,0,0,2,.17h0c8.17.35,15.27-5.48,15.86-13l2.38-30.49C801.19,340,795.05,333.57,786.88,333.22Z"/></g><path class="cls-2" d="M790.64,379.85l1-17-23.77-1.37-1,17a11.76,11.76,0,0,0,11.06,12.41h.3A11.74,11.74,0,0,0,790.64,379.85Z"/><path class="cls-22" d="M792.85,345.5a12,12,0,0,0-11.27-12.65l-.31,0a12,12,0,0,0-12.66,11.28l-1.05,18.28a43.18,43.18,0,0,0,24.24,1.4Z"/><g class="cls-4"><path class="cls-5" d="M790.64,379.85l.92-16,.24,0,1.05-18.29a12,12,0,0,0-6.35-11.27c1.22,2.16,2.94,6.55,3,14.22,0,11.9-1.84,33.5-1.84,33.5a12.06,12.06,0,0,1-3.3,7.65A11.73,11.73,0,0,0,790.64,379.85Z"/></g><path class="cls-8" d="M793.68,379.3l2-33.11a14.87,14.87,0,0,0-13.95-15.72h0A14.86,14.86,0,0,0,766,344.41l-2,33.11A14.86,14.86,0,0,0,778,393.24h0A14.86,14.86,0,0,0,793.68,379.3Z"/><path class="cls-23" d="M778.44,355.48c-.52,9.07-2.5,16.34-4.41,16.23s-3.06-7.56-2.54-16.63,2.5-16.34,4.42-16.23S779,346.4,778.44,355.48Z"/><g class="cls-4"><path class="cls-21" d="M821.1,371.41a16.44,16.44,0,0,0-2.73.12L814.54,429a15.32,15.32,0,0,0,2.05.17h0c8.17.36,15.27-5.47,15.86-13l2.38-30.49C835.42,378.17,829.27,371.77,821.1,371.41Z"/></g><path class="cls-2" d="M824.86,418.05l1-17-23.77-1.37-1,17a11.76,11.76,0,0,0,11.06,12.41l.3,0A11.76,11.76,0,0,0,824.86,418.05Z"/><path class="cls-22" d="M827.08,383.7A12,12,0,0,0,815.8,371h-.31a12,12,0,0,0-12.66,11.27l-1.05,18.29A43.27,43.27,0,0,0,826,402Z"/><g class="cls-4"><path class="cls-5" d="M824.86,418.05l.92-16,.24,0,1.06-18.29a12,12,0,0,0-6.36-11.27c1.22,2.16,2.94,6.54,3,14.22,0,11.9-1.85,33.5-1.85,33.5a12.06,12.06,0,0,1-3.3,7.65A11.74,11.74,0,0,0,824.86,418.05Z"/></g><path class="cls-8" d="M827.9,417.49l2-33.1a14.86,14.86,0,0,0-13.95-15.72h0a14.85,14.85,0,0,0-15.72,13.94l-2,33.11a14.86,14.86,0,0,0,13.94,15.72h0A14.86,14.86,0,0,0,827.9,417.49Z"/><path class="cls-23" d="M812.66,393.67c-.52,9.08-2.5,16.34-4.41,16.23s-3-7.55-2.53-16.62,2.49-16.35,4.41-16.23S813.18,384.6,812.66,393.67Z"/><g class="cls-4"><path class="cls-21" d="M855.32,409.61a16.44,16.44,0,0,0-2.73.12l-3.83,57.51a15.32,15.32,0,0,0,2,.17h0c8.17.35,15.27-5.48,15.86-13l2.38-30.48C869.64,416.36,863.49,410,855.32,409.61Z"/></g><path class="cls-2" d="M859.08,456.25l1-17-23.77-1.37-1,17a11.76,11.76,0,0,0,11.06,12.41l.3,0A11.76,11.76,0,0,0,859.08,456.25Z"/><path class="cls-22" d="M861.3,421.9A12,12,0,0,0,850,409.24l-.31,0a12,12,0,0,0-12.66,11.28l-1,18.29a43.27,43.27,0,0,0,24.24,1.39Z"/><g class="cls-4"><path class="cls-5" d="M859.08,456.25l.92-16,.24-.05,1.06-18.28a12,12,0,0,0-6.36-11.27c1.23,2.15,2.94,6.54,3,14.21,0,11.91-1.85,33.5-1.85,33.5a12.07,12.07,0,0,1-3.3,7.66A11.74,11.74,0,0,0,859.08,456.25Z"/></g><path class="cls-8" d="M862.13,455.69l2-33.11a14.86,14.86,0,0,0-14-15.72h0a14.86,14.86,0,0,0-15.72,13.95l-2,33.1a14.86,14.86,0,0,0,13.94,15.72h0A14.87,14.87,0,0,0,862.13,455.69Z"/><path class="cls-23" d="M846.88,431.87c-.52,9.07-2.5,16.34-4.41,16.23s-3.05-7.55-2.53-16.63,2.49-16.34,4.41-16.23S847.4,422.8,846.88,431.87Z"/><g class="cls-24"><path class="cls-25" d="M903.58,368.08V363c6.19-1.08,9.87-2.42,9.87-3.87v-17c0-.93-2.33-1.79-6.38-2.54h0v-4.71c0-2.45-18.73-4.44-41.87-4.46l13.56,52.74a16.73,16.73,0,0,0,20.37,12l20.24-5.2A47.8,47.8,0,0,0,903.58,368.08Z"/></g><path class="cls-26" d="M812.88,371.68v-9.94l38.76.06,38.75.06v9.95a48,48,0,0,1,16.37,23.6,23.5,23.5,0,0,1,1.09,7.11V513a9.05,9.05,0,0,1-6.22,8.6c-8.55,2.81-25.71,7.13-50.26,7.09-25.86,0-42-4.13-50-6.92a9.06,9.06,0,0,1-6.09-8.55V402.38a23.61,23.61,0,0,1,1.11-7.18A48,48,0,0,1,812.88,371.68Z"/><path class="cls-27" d="M890.39,371.81s-15.59,4.64-39.9,4.6-37.61-4.73-37.61-4.73v-9.94H890.4Z"/><path class="cls-25" d="M900.27,362.86c0,3.54-21.71,6.4-48.49,6.4s-48.48-2.86-48.48-6.4v-17h97Z"/><g class="cls-28"><path class="cls-29" d="M846.39,366.63h-1l0-11.06.95,0Z"/><path class="cls-29" d="M833.13,366.18l-1-.05V355l1,.06Z"/><path class="cls-29" d="M821.39,365.26l-.95-.1V353.84l.95.12Z"/><path class="cls-29" d="M809.66,363.44l-.95-.23V351.79l.95.23Z"/><path class="cls-29" d="M894.86,363.21l-1,.23,0-11.42,1-.24Z"/><path class="cls-29" d="M881.59,365.32l-1,.1,0-11.28,1-.11Z"/><path class="cls-29" d="M869.86,366.21l-1,.05,0-11.13,1-.06Z"/><path class="cls-29" d="M858.12,366.62h-1V355.58l1,0Z"/></g><path class="cls-9" d="M803.3,345.9c0,2.84,21.71,6.5,48.48,6.5s48.49-3.66,48.49-6.5-21.71-5.13-48.49-5.13S803.3,343.07,803.3,345.9Z"/><path class="cls-30" d="M893.89,343.35c0,3.07-18.85,5.56-42.11,5.56s-42.11-2.49-42.11-5.56v-4.71h84.22Z"/><path class="cls-25" d="M809.67,338.64c0,2.47,18.86,4.46,42.11,4.46s42.11-2,42.11-4.46-18.85-4.45-42.11-4.45S809.67,336.18,809.67,338.64Z"/><path class="cls-25" d="M795.32,415.9v97.42a239.3,239.3,0,0,0,41.52,6.19,10.75,10.75,0,0,0,11.37-10.73V430.21a10.72,10.72,0,0,0-10.39-10.71A416.86,416.86,0,0,1,795.32,415.9Z"/><path class="cls-25" d="M907.85,415.9q-6.68.87-13.46,1.49a10.7,10.7,0,0,0-9.7,10.68v77.18a10.75,10.75,0,0,0,13,10.51q5.13-1.07,10.19-2.44Z"/><path class="cls-11" d="M1040.49,530.15c0,4.71,24,8.52,53.65,8.52s53.65-3.81,53.65-8.52-24-8.51-53.65-8.51S1040.49,525.45,1040.49,530.15Z"/><path class="cls-31" d="M1116.77,117a13.93,13.93,0,0,1,11.3,4.2l-11.57,31.19a85.71,85.71,0,0,0-11.31-4.19Z"/><rect class="cls-32" x="1029.46" y="172.03" width="32.83" height="306.83" transform="translate(1913.3 994.28) rotate(-159.65)"/><rect class="cls-33" x="1045.36" y="174.88" width="16.42" height="306.83" transform="translate(1927.23 1002.48) rotate(-159.65)"/><path class="cls-34" d="M1077.36,179.78c.33,0,.66,0,1,0l-1.42,3.84c-.57,0-1.14-.05-1.72-.05-.82,0-1.65.89-1.86,2s.29,2,1.11,2c.33,0,.65,0,1,0l-1.2,3.22c-.63,1.73-.1,3.43,1.15,3.7A133,133,0,0,1,1108.84,207c1.12.59,2.64-.36,3.27-2.07l1.21-3.26.76.62c.62.53,1.59.17,2.17-.81a2.28,2.28,0,0,0-.11-2.74c-.44-.37-.89-.72-1.34-1.08l1.43-3.84c.25.21.51.4.76.62.62.52,1.6.16,2.17-.82a2.25,2.25,0,0,0-.11-2.73c-.44-.37-.89-.72-1.33-1.08l1.61-4.36a3.06,3.06,0,0,0-.52-3.42l-5-4a39.94,39.94,0,0,0-23.27-8.63l-6.41-.28a3,3,0,0,0-2.63,2.25l-1.62,4.36c-.57,0-1.14-.05-1.72-.05-.82,0-1.65.89-1.86,2S1076.54,179.77,1077.36,179.78Z"/><rect class="cls-31" x="958.95" y="469.07" width="64.79" height="6.77" rx="2.82" transform="translate(1756.52 1260.17) rotate(-159.65)"/><path class="cls-33" d="M1132.18,167.2l-95.81,258.33-48.55-18,95.81-258.32C1087.65,138.36,1136.2,156.36,1132.18,167.2Z"/><path class="cls-31" d="M981,405l62.29,23.1a4.15,4.15,0,0,1,2.44,5.32l-.58,1.57a4.15,4.15,0,0,1-5.32,2.44l-62.29-23.1a4.15,4.15,0,0,1-2.44-5.33l.58-1.56A4.14,4.14,0,0,1,981,405Z"/><line class="cls-35" x1="1118.97" y1="188.93" x2="1090.45" y2="178.35"/><line class="cls-35" x1="1113.24" y1="204.39" x2="1098.98" y2="199.1"/><line class="cls-35" x1="1107.5" y1="219.85" x2="1093.24" y2="214.56"/><line class="cls-35" x1="1101.77" y1="235.31" x2="1087.51" y2="230.02"/><line class="cls-35" x1="1096.03" y1="250.77" x2="1081.77" y2="245.48"/><line class="cls-35" x1="1090.3" y1="266.23" x2="1061.78" y2="255.65"/><line class="cls-35" x1="1084.57" y1="281.69" x2="1070.31" y2="276.4"/><line class="cls-35" x1="1078.83" y1="297.15" x2="1064.57" y2="291.86"/><line class="cls-35" x1="1073.1" y1="312.61" x2="1058.84" y2="307.32"/><line class="cls-35" x1="1067.36" y1="328.07" x2="1053.1" y2="322.78"/><line class="cls-35" x1="1061.63" y1="343.53" x2="1033.11" y2="332.95"/><path class="cls-36" d="M1142.5,436.19c0-1.67-13.26-4-28.23-4.72a9.31,9.31,0,0,0-9.78,9.3v81.5l38-.66Z"/><path class="cls-26" d="M1142.5,398.79V521.61a8,8,0,0,1-5.34,7.51c-7,2.44-21.15,6-43.84,6.07-21.54,0-36.59-3.76-44.09-6.22a8,8,0,0,1-5.46-7.55V398.91Z"/><path class="cls-27" d="M1059.09,397.51s13.68,4.07,35,4,33-4.15,33-4.15v-8.72h-68Z"/><path class="cls-25" d="M1142.5,436.19a364.27,364.27,0,0,1-73.47,2.56,9.22,9.22,0,0,0-9.86,9.19v68.81a9.21,9.21,0,0,0,8.08,9.15,212,212,0,0,0,75.2-4.22l0-.07Z"/><path class="cls-25" d="M1035.92,398.23c0,4.16,25.54,7.53,57,7.53s57-3.37,57-7.53v-20H1035.92Z"/><g class="cls-28"><path class="cls-29" d="M1099.3,402.67l1.13,0,0-13-1.12,0Z"/><path class="cls-29" d="M1114.91,402.14l1.13-.07,0-13.13-1.12.08Z"/><path class="cls-29" d="M1128.71,401.05l1.13-.12,0-13.31-1.12.14Z"/><path class="cls-29" d="M1142.51,398.91l1.13-.27,0-13.44-1.12.27Z"/><path class="cls-29" d="M1042.29,398.64l1.13.27,0-13.44-1.12-.27Z"/><path class="cls-29" d="M1057.9,401.12l1.12.12,0-13.27-1.11-.13Z"/><path class="cls-29" d="M1071.7,402.17l1.13.06,0-13.1-1.12-.07Z"/><path class="cls-29" d="M1085.5,402.65l1.13,0,0-13-1.12,0Z"/></g><path class="cls-9" d="M1150,378.28c0,3.33-25.54,7.64-57,7.64s-57-4.31-57-7.64,25.54-6,57-6S1150,374.94,1150,378.28Z"/><path class="cls-30" d="M1043.42,375.28c0,3.61,22.18,6.54,49.54,6.54s49.54-2.93,49.54-6.54v-5.54h-99.08Z"/><path class="cls-25" d="M1142.5,369.74c0,2.89-22.18,5.24-49.54,5.24s-49.54-2.35-49.54-5.24,22.18-5.24,49.54-5.24S1142.5,366.84,1142.5,369.74Z"/><g class="cls-37"><path class="cls-25" d="M1024.61,340.83l-2.25-11.62c-2.71-2-5-3.61-6.39-4.71v-4.4c1.71-.29,3.19-.61,4.43-1l-4.85-25c-5.82-1.31-18.42-2.22-33-2.22-20.14,0-36.47,1.72-36.47,3.86v4.08h0c-3.51.65-5.52,1.4-5.52,2.2v14.69c0,1.24,3.08,2.39,8.3,3.31v4.33c-8.8,6.66-46.88,32.13-46.88,53v4.23l109.42-21.19A16.74,16.74,0,0,0,1024.61,340.83Z"/></g><g class="cls-24"><path class="cls-25" d="M907.82,513.32h0V402.52a23.5,23.5,0,0,0-1.09-7.11,49.45,49.45,0,0,0-9.2-16.76,18.88,18.88,0,0,0-.41,3.85V523c1.68-.48,3.19-.94,4.48-1.36A9,9,0,0,0,907.82,513.32Z"/></g><path class="cls-38" d="M1072.26,365c-17,.83-28.84,2.65-28.84,4.76v5.54h0c-4.76.89-7.5,1.91-7.5,3v20c0,1.39,2.87,2.69,7.85,3.81V521.42a8,8,0,0,0,5.46,7.55,130.83,130.83,0,0,0,30.11,5.68v-152C1079.34,377,1076.52,370.89,1072.26,365Z"/><g class="cls-24"><path class="cls-39" d="M1032.76,325.2c5.36-.93,8.55-2.1,8.55-3.36V307.16c0-.81-2-1.56-5.52-2.21h0v-4.08c0-.89-2.82-1.7-7.54-2.35l-40.43,109,48.55,18,26.48-71.4c-11.34-11.32-25.21-20.81-30.1-24.54Z"/></g><path class="cls-40" d="M911.45,390.38V536.22a12.11,12.11,0,0,0,8.13,11.44c10.67,3.72,32.21,9.19,66.77,9.25,32.8.05,55.73-5.73,67.15-9.48a12.11,12.11,0,0,0,8.31-11.5V390.38Z"/><ellipse class="cls-41" cx="986.47" cy="390.38" rx="75.01" ry="7.69"/><path class="cls-26" d="M953.21,329.48l0-8.61,33.57.06,33.56.05v8.61c8.8,6.7,46.58,32,46.58,53.1V540.44a12.91,12.91,0,0,1-8.87,12.28c-12.2,4-36.69,10.18-71.73,10.13-36.92-.07-59.93-5.91-71.32-9.88a12.94,12.94,0,0,1-8.68-12.22V382.5C906.33,361.61,944.41,336.14,953.21,329.48Z"/><path class="cls-27" d="M1020.35,329.59s-13.5,4-34.55,4-32.59-4.1-32.59-4.1v-8.61h67.14Z"/><path class="cls-25" d="M906.33,401.79c39.81,5.43,57.21,4.16,98.39,4.16,8.69,0,16,6.26,16,14.95v112a15,15,0,0,1-13.14,14.88c-41.17,5-61.39,2.71-101.2-6.87l-.08-.11Z"/><path class="cls-25" d="M1028.91,321.84c0,3.07-18.8,5.55-42,5.55s-42-2.48-42-5.55V307.16h84Z"/><g class="cls-28"><path class="cls-29" d="M982.24,325.11h-.83l0-9.58.82,0Z"/><path class="cls-29" d="M970.75,324.72l-.83-.05,0-9.66.82.05Z"/><path class="cls-29" d="M960.59,323.92l-.83-.09,0-9.79.82.1Z"/><path class="cls-29" d="M950.43,322.35l-.83-.2,0-9.89.82.19Z"/><path class="cls-29" d="M1024.22,322.15l-.83.2,0-9.9.82-.2Z"/><path class="cls-29" d="M1012.73,324l-.83.09,0-9.77.82-.1Z"/><path class="cls-29" d="M1002.57,324.75l-.83,0v-9.64l.83-.06Z"/><path class="cls-29" d="M992.41,325.1h-.83v-9.57l.82,0Z"/></g><path class="cls-9" d="M944.92,307.16c0,2.45,18.8,5.62,42,5.62s42-3.17,42-5.62-18.8-4.45-42-4.45S944.92,304.7,944.92,307.16Z"/><path class="cls-30" d="M1023.39,305c0,2.66-16.33,4.81-36.48,4.81s-36.47-2.15-36.47-4.81v-4.08h72.95Z"/><ellipse class="cls-25" cx="986.91" cy="300.87" rx="36.47" ry="3.86"/><path class="cls-11" d="M834.05,571.42c0,5-11.95,9-26.69,9s-26.68-2-26.68-12.56c0-5,11.94-5.46,26.68-5.46S834.05,566.44,834.05,571.42Z"/><path class="cls-42" d="M780.34,559.77l.34,8.1c.05,2.39,2.52,4.77,7.31,6.5l.51.17a1.32,1.32,0,0,1,1.11-.41c.74,0,2.17,1.35,2.17,1.35,8.81,2,20.21,1.45,27.24-1.67,3.72-1.65,5.57-3.71,5.62-5.78l-.34-8.19Z"/><path class="cls-7" d="M817,553.26c9,3.28,9.81,8.85,1.71,12.44s-22,3.85-31,.57-9.81-8.85-1.71-12.44S807.94,550,817,553.26Z"/><ellipse class="cls-43" cx="802.32" cy="559.77" rx="7.58" ry="18.92" transform="matrix(0, -1, 1, 0, 238.89, 1359.52)"/><path class="cls-9" d="M813.32,553.58l-25.24,11.19.12.52c.08.38.89.67,1.84.67h1.3l25.24-11.19-.12-.52c-.09-.38-.9-.67-1.86-.67Z"/><path class="cls-7" d="M814.6,553.57h-1.28l-25.24,11.19.12.52c0,.19.26.36.59.48l27.07-12A3.89,3.89,0,0,0,814.6,553.57Z"/><polygon class="cls-9" points="86.56 62.8 73.77 62.8 73.77 50 62.8 50 62.8 62.8 50 62.8 50 73.77 62.8 73.77 62.8 86.56 73.77 86.56 73.77 73.77 86.56 73.77 86.56 62.8"/><rect class="cls-44" width="1200" height="630"/></g></g></svg>