<?xml version="1.0" encoding="utf-8"?>
<!-- Generator: Adobe Illustrator 23.0.2, SVG Export Plug-In . SVG Version: 6.00 Build 0)  -->
<svg version="1.1" id="Layer_1" xmlns="http://www.w3.org/2000/svg" xmlns:xlink="http://www.w3.org/1999/xlink" x="0px" y="0px"
	 viewBox="0 0 800 253.61" style="enable-background:new 0 0 800 253.61;" xml:space="preserve">
<style type="text/css">
	.st0{fill:#212121;}
	.st1{fill:#29ABE2;}
	.st2{fill:#22B573;}
	.st3{fill:#61D584;}
	.st4{fill:url(#SVGID_1_);}
	.st5{fill:#31D7D7;}
	.st6{fill:url(#SVGID_2_);}
	.st7{fill:url(#SVGID_3_);}
</style>
<path class="st3" d="M165.19,130.85c0,0.9,0.19,1.84-1.29,1.77c-6.68-0.33-12.54,2.11-18.18,5.38c-4.45,2.58-9.2,4.1-15,3.38
	c1.53-0.78,2.63-1.29,3.68-1.88c1.71-0.95,2.51-2.49,2.27-4.38c-0.36-2.78-0.88-5.58-3.77-7.02c-0.86-0.43-0.63-1-0.45-1.62
	c0.59-2.01,0.34-3.98-0.22-5.94c-0.54-1.94-1.32-3.68-3.57-4.18c-0.8-0.17-0.99-0.66-0.72-1.46c1.2-3.51,0.14-6.63-1.83-9.53
	c-0.63-0.92-0.76-1.28,0.56-1.62c2.65-0.68,2.58-0.77,3.1,1.83c0.3,1.52,0.64,3.05,1.69,4.29c0.36,0.42,0.81,0.75,1.36,0.49
	c0.61-0.29,0.44-0.9,0.26-1.36c-0.9-2.3-1.56-4.65-1.92-7.1c-0.13-0.92-0.65-1.39-1.63-0.98c-0.06,0.02-0.12,0.06-0.18,0.06
	c-4.34,0.2-6.9,2.14-8.18,6.59c-1.36,4.73-4.79,6.53-9.7,6.42c-1.31-0.03-1.89-0.36-1.68-1.8c0.7-4.61,1.47-9.21,2.91-13.66
	c0.21-0.66,0.52-1.42,1.02-1.85c3.8-3.25,7.8-6.32,12.6-7.89c4.55-1.49,8.69,0.38,12.61,2.5c3.76,2.03,7.34,4.38,11.07,6.48
	c1.93,1.09,3.93,2.07,6.22,2.22c0.92,0.06,1.24-0.26,1.23-1.2c2.29,2.89,6.29,8.77,7.86,17.24
	C166.48,122.29,165.86,127.55,165.19,130.85z"/>
<linearGradient id="SVGID_1_" gradientUnits="userSpaceOnUse" x1="66.624" y1="182.4523" x2="126.1632" y2="95.8497">
	<stop  offset="0" style="stop-color:#31D7D7"/>
	<stop  offset="1" style="stop-color:#61D584"/>
</linearGradient>
<path class="st4" d="M60.24,107.91c-1.08-0.19-2.03-0.56-2.82-1.09v29.96c0.64-1.05,1.71-1.85,3.17-2.37
	c1.03-0.37,2.11-0.62,3.2-0.76c0.46-0.06,0.87-0.08,1.26-0.08c1.5,0,2.55,0.46,3.28,1.14c-0.01-0.08-0.01-0.17-0.02-0.25
	c-0.32-3.9,0.88-5.59,4.77-6.67c0.96-0.27,1.94-0.43,3-0.48v-18.7C68.67,108.42,62.16,108.24,60.24,107.91z M174.13,92.42
	c-5.91-9.89-14.22-17.57-24.91-23.04c-10.7-5.47-22.95-8.21-36.76-8.21H57.42v35.5c0.83-0.53,1.85-0.88,3-1.02
	c1.64-0.2,6.72-0.36,12.1-0.54c1.19-0.04,2.4-0.08,3.55-0.11V77.4h5.54c0.11-0.85,0.25-1.7,0.44-2.55c0.65-2.94,3.07-4.84,6.15-4.84
	c3.16,0.03,5.51,2.1,5.89,5.17c0.09,0.74,0.18,1.47,0.26,2.22h16.99c10.57,0,19.87,2.06,27.89,6.16c8.03,4.1,14.21,9.86,18.57,17.26
	c4.35,7.4,6.53,15.96,6.53,25.65c0,9.7-2.18,18.26-6.53,25.66c-4.36,7.4-10.54,13.16-18.57,17.26c-8.02,4.1-17.32,6.15-27.89,6.15
	H76.08v-18.88c-0.69-0.1-1.28-0.29-1.77-0.58c-0.27-0.16-0.51-0.34-0.72-0.54c0.01,3.68-3.17,4.72-4.27,5.07
	c-1.49,0.48-2.65,0.71-3.65,0.71c-1.7,0-2.9-0.66-3.76-1.62c-0.01,1.29-0.42,2.69-1.99,3.64c-0.85,0.52-1.68,0.92-2.51,1.19v27.25
	h55.04c13.81,0,26.06-2.74,36.76-8.21c10.69-5.47,19-13.16,24.91-23.04c5.91-9.89,8.86-21.24,8.86-34.06
	C182.99,113.67,180.04,102.31,174.13,92.42z"/>
<path class="st3" d="M276.38,102.03c-7.28-6.72-17.76-10.08-31.44-10.08c-7.96,0-15.49,1.09-22.58,3.26
	c-7.09,2.18-13.18,5.32-18.28,9.42l7.47,13.44c3.85-3.23,8.58-5.82,14.18-7.75c5.59-1.93,11.32-2.89,17.16-2.89
	c8.71,0,15.3,2.05,19.78,6.15c4.48,4.11,6.71,10.02,6.71,17.73v3.54h-28.36c-13.81,0-23.88,2.65-30.23,7.93
	c-6.34,5.29-9.51,12.29-9.51,20.99c0,8.71,3.33,15.74,9.98,21.08c6.65,5.35,15.51,8.02,26.59,8.02c7.58,0,14.15-1.21,19.69-3.63
	c5.53-2.43,9.79-5.94,12.78-10.55v13.06h16.98v-59.71C287.29,118.76,283.66,108.75,276.38,102.03z M269.38,161.55
	c-2.24,5.6-5.84,9.92-10.82,12.97c-4.97,3.05-10.89,4.57-17.72,4.57c-6.85,0-12.19-1.43-16.05-4.29c-3.86-2.86-5.79-6.78-5.79-11.75
	c0-10.2,7.58-15.3,22.77-15.3h27.61V161.55z"/>
<path class="st3" d="M452.23,92.89L422.76,172l-29.29-79.11h-15.11l-29.85,78.74l-28.74-78.74h-16.98l36.76,98.89h17.17l28.92-75.01
	l28.54,75.01h17.17l36.94-98.89H452.23z"/>
<path class="st3" d="M550.66,102.03c-7.28-6.72-17.76-10.08-31.44-10.08c-7.96,0-15.49,1.09-22.58,3.26
	c-7.09,2.18-13.18,5.32-18.28,9.42l7.47,13.44c3.85-3.23,8.58-5.82,14.18-7.75s11.32-2.89,17.16-2.89c8.71,0,15.3,2.05,19.78,6.15
	c4.48,4.11,6.71,10.02,6.71,17.73v3.54H515.3c-13.81,0-23.88,2.65-30.23,7.93c-6.34,5.29-9.51,12.29-9.51,20.99
	c0,8.71,3.33,15.74,9.98,21.08c6.65,5.35,15.51,8.02,26.59,8.02c7.58,0,14.15-1.21,19.69-3.63c5.53-2.43,9.79-5.94,12.78-10.55
	v13.06h16.98v-59.71C561.57,118.76,557.94,108.75,550.66,102.03z M543.66,161.55c-2.24,5.6-5.84,9.92-10.82,12.97
	c-4.97,3.05-10.88,4.57-17.72,4.57c-6.84,0-12.19-1.43-16.05-4.29c-3.86-2.86-5.79-6.78-5.79-11.75c0-10.2,7.59-15.3,22.77-15.3
	h27.61V161.55z"/>
<path class="st3" d="M592.95,132.82c-4.28,0-7.75,3.46-7.75,7.73c0,4.28,3.46,7.75,7.75,7.75h17.35v-15.48H592.95z"/>
<path class="st5" d="M640.52,140.56c0,4.28-3.46,7.75-7.75,7.75h-17.35v-15.48h17.35c2.14,0,4.08,0.86,5.48,2.27
	C639.66,136.49,640.52,138.43,640.52,140.56z"/>
<path class="st5" d="M681.87,176.73v-42.17h65.49v-15.86h-65.49V78.59h73.52V62.36h-92.17v130.61H758v-16.24H681.87z"/>
<path class="st5" d="M90.52,181.9c0.47-1.27,1.08-2.49,1.69-3.7c2.3-4.5,5.38-8.55,7.5-13.14c2.27-4.89,2.47-9.71-0.58-14.44
	c-1.65-2.56-3.25-5.15-5.18-7.51c-0.58-0.71-1.2-1.36-2.1-1.67c-4.8-1.64-9.74-2.61-14.78-3.11c-0.7-0.07-1,0.03-1.13,0.83
	c-0.69,4.25,1.17,8.13,5.03,10.05c1.44,0.72,3.01,1.17,4.51,1.78c0.94,0.39,1.98,0.66,2.24,1.91c0.38,1.84,0.77,3.67,1.25,5.49
	c0.2,0.75,0.07,1.04-0.71,1.17c-2.56,0.43-5.05,1.12-7.48,2.01c-0.47,0.17-1.05,0.38-1.34-0.28c-0.26-0.59,0.15-1,0.55-1.33
	c1.03-0.84,2.27-1.2,3.55-1.49c3.41-0.75,3.41-0.75,2.28-4.11c-0.04-0.12-0.14-0.21-0.32-0.46c-3.26,2.62-6.92,3.68-11.05,2.47
	c-0.77-0.23-0.83,0.43-0.98,0.89c-0.43,1.28-1.1,2.4-2.41,2.87c-2.57,0.92-5.19,1.82-7.93,0.75c-0.71-0.28-1.09-0.2-1.36,0.47
	c-0.95,2.37-3.17,2.93-5.25,3.56c-3.21,0.97-5.4-0.09-6.83-3.12c-0.33-0.7-0.45-1.54-1.24-2.14c-0.18,5.12,1.33,9.63,3.57,13.93
	c2.65,5.09,4.83,10.33,4.92,16.17c0.03,1.65,0.58,1.98,2.13,1.98L90.52,181.9z"/>
<path class="st5" d="M93.96,123.49c0.16,5.05,0.31,10.1,0.49,15.15c0.04,1.22,0.15,2.08-1.58,1.17c-2.07-1.09-4.46-1.29-6.74-1.71
	c-2.01-0.37-2.95-1.52-3.23-3.53c-0.53-3.75-0.13-7.52-0.33-11.27c0.1-3.52,0.2-33.71,0.29-37.23c0.16-3.62,0.12-7.26,0.91-10.83
	c0.48-2.15,2.16-3.49,4.49-3.47c2.19,0.02,3.82,1.39,4.1,3.63c0.42,3.4,0.74,6.82,1.1,10.23C93.36,89.37,94.47,119.89,93.96,123.49z
	"/>
<path class="st3" d="M130.91,124.14c0.15,1.7-0.71,2.88-2.36,3.46c-5.58,1.97-11.37,3.01-17.23,3.68c-1.81,0.21-3.25-0.65-3.81-2.61
	c-0.33-1.18-0.75-2.32-0.75-3.59c0-1.79,0.77-2.99,2.49-3.48c5.67-1.59,11.42-2.83,17.26-3.63c1.64-0.23,3.04,0.48,3.63,2.26
	C130.54,121.49,130.95,122.71,130.91,124.14z"/>
<path class="st5" d="M71.82,155.05c0.26,2.32-1.1,3.26-3.03,3.89c-4.13,1.34-5.76,0.64-7.06-3.38c-1.6-4.94-2.43-10.05-3.2-15.17
	c-0.34-2.23,0.54-3.57,2.67-4.33c0.91-0.33,1.87-0.55,2.82-0.67c2.51-0.31,3.61,0.35,4.31,2.8
	C69.89,143.73,70.99,149.37,71.82,155.05z"/>
<path class="st3" d="M116.84,142.4c-1.91,0.11-3.13-0.66-3.55-2.57c-0.15-0.69-0.39-1.37-0.53-2.06c-0.47-2.37,0.07-3.37,2.35-4.14
	c4.54-1.55,9.17-2.75,13.87-3.64c3.98-0.75,6.88,2.82,5.57,6.7c-0.25,0.75-0.76,1.21-1.43,1.49
	C127.88,140.3,122.43,141.63,116.84,142.4z"/>
<path class="st5" d="M47.55,145.54c-0.07-2.86,0.64-3.55,4.35-4.2c2.77-0.49,3.59,0.01,4.45,2.68c1.44,4.45,2.54,8.99,3.51,13.56
	c0.32,1.49,0.78,3.28-0.84,4.26c-1.75,1.07-3.75,1.74-5.9,1.22c-0.74-0.18-1.15-0.8-1.48-1.44
	C50.22,158.9,47.63,148.73,47.55,145.54z"/>
<path class="st3" d="M93.96,107.2c-0.37-3.73-0.6-7.46-0.5-11.21c5.57-0.22,11.14-0.4,16.7-0.67c1.5-0.07,1.85,0.31,1.17,1.69
	c-0.89,1.82-1.23,3.8-1.56,5.78c-0.55,3.23-1.48,4-4.73,4.27C101.34,107.37,97.65,107.23,93.96,107.2z"/>
<path class="st3" d="M106.12,119.81c-3.57,0.03-4.7-0.9-5.18-3.59c-0.1-0.57-0.22-1.14-0.33-1.71c-0.56-3.01,0.86-5.06,3.88-5.58
	c3.79-0.66,3.79-0.66,3.41,3.07c-0.34,3.32,1.36,4.71,5.16,4.2c4.71-0.64,7.85-3.36,9.95-7.48c0.09-0.17,0.11-0.38,0.21-0.54
	c0.42-0.61,0.36-1.87,1.14-1.83c0.99,0.05,1.15,1.3,1.39,2.11c0.37,1.23,0.6,2.53,0.7,3.81c0.13,1.67-0.36,3.02-2.19,3.63
	C118.08,117.93,111.75,119.14,106.12,119.81z"/>
<path class="st5" d="M83.67,152.64c-1.54,1.88-6.63,3.01-8.47,1.92c-0.91-0.54-1.24-1.53-1.5-2.43c-1.74-5.84-3.15-11.75-3.64-17.84
	c-0.25-3.12,0.45-3.99,3.5-4.84c1.01-0.28,2.02-0.42,3.06-0.45c1.94-0.06,3.19,0.85,3.91,2.59c0.15,0.36,0.29,0.72,0.4,1.1
	c1.15,4.14,0.92,4.4-3.21,3.73c-3.24-0.53-3.66-0.21-4.02,3.11c-0.5,4.52,2.14,9.13,6.68,11.59
	C81.42,151.7,82.55,152.14,83.67,152.64z"/>
<path class="st3" d="M82.86,96.44c-0.1,3.52-0.2,7.04-0.29,10.56c-2.91-0.12-19.15-0.33-22.03-0.82c-2.47-0.42-3.97-2.1-4-4.49
	c-0.03-2.37,1.44-3.97,4.11-4.31C63.6,97.02,79.9,96.75,82.86,96.44z"/>
</svg>
